<svg xmlns="http://www.w3.org/2000/svg" viewBox="0 0 250 350" width="250" height="350"><defs><radialGradient id="paper" cx=".5" cy=".45" r=".75"><stop offset="0" stop-color="#fffaf0"/><stop offset=".7" stop-color="#fbf1dc"/><stop offset="1" stop-color="#f1e2c0"/></radialGradient><clipPath id="pnl"><rect x="18" y="18" width="214" height="314" rx="6"/></clipPath><radialGradient id="pbg" cx=".5" cy=".3" r=".85"><stop offset="0" stop-color="#fde3d8"/><stop offset="1" stop-color="#ee8f7f"/></radialGradient><pattern id="brc" width="14" height="14" patternUnits="userSpaceOnUse"><g fill="#7a1a1a" opacity=".35"><circle cx="7" cy="4.6" r="1.1"/><circle cx="7" cy="9.4" r="1.1"/><circle cx="4.6" cy="7" r="1.1"/><circle cx="9.4" cy="7" r="1.1"/><circle cx="0" cy="0" r=".9"/><circle cx="14" cy="0" r=".9"/><circle cx="0" cy="14" r=".9"/><circle cx="14" cy="14" r=".9"/></g></pattern><linearGradient id="gGv" x1="0" y1="0" x2="0" y2="1"><stop offset="0" stop-color="#fff3b0"/><stop offset=".45" stop-color="#e9b632"/><stop offset="1" stop-color="#9a6508"/></linearGradient><radialGradient id="gemR" cx=".35" cy=".35" r=".7"><stop offset="0" stop-color="#ff9a8a"/><stop offset=".5" stop-color="#d3262f"/><stop offset="1" stop-color="#6e0a12"/></radialGradient><radialGradient id="gemB" cx=".35" cy=".35" r=".7"><stop offset="0" stop-color="#b8dcff"/><stop offset=".5" stop-color="#2f72d8"/><stop offset="1" stop-color="#0f2f6e"/></radialGradient><radialGradient id="gemG" cx=".35" cy=".35" r=".7"><stop offset="0" stop-color="#c8f5a8"/><stop offset=".5" stop-color="#2f9a44"/><stop offset="1" stop-color="#0e4a1c"/></radialGradient><linearGradient id="gG" x1="0" y1="0" x2="1" y2="1"><stop offset="0" stop-color="#fff3b0"/><stop offset=".35" stop-color="#f2c442"/><stop offset=".7" stop-color="#cf9318"/><stop offset="1" stop-color="#8f5a06"/></linearGradient><linearGradient id="cBowl" x1="0" y1="0" x2="1" y2="0"><stop offset="0" stop-color="#6e0c14"/><stop offset=".3" stop-color="#c62a33"/><stop offset=".47" stop-color="#f37a68"/><stop offset=".55" stop-color="#d9393c"/><stop offset=".8" stop-color="#a91c26"/><stop offset="1" stop-color="#5e0a12"/></linearGradient><radialGradient id="gemB" cx=".35" cy=".35" r=".7"><stop offset="0" stop-color="#b8dcff"/><stop offset=".5" stop-color="#2f72d8"/><stop offset="1" stop-color="#0f2f6e"/></radialGradient><radialGradient id="gemG" cx=".35" cy=".35" r=".7"><stop offset="0" stop-color="#c8f5a8"/><stop offset=".5" stop-color="#2f9a44"/><stop offset="1" stop-color="#0e4a1c"/></radialGradient><g id="em-c"><ellipse cy="47" rx="28" ry="4" fill="#000" opacity=".16"/><path d="M-27 46C-25 39-12 36-6 31H6C12 36 25 39 27 46Z" fill="url(#gG)" stroke="#2b1d14" stroke-width="1.4"/><path d="M-21 42.5H21" stroke="#9a6508" stroke-width=".9"/><path d="M-5 8H5L4 16C11 18 11 26 4 28L5 32H-5L-4 28C-11 26-11 18-4 16Z" fill="url(#gG)" stroke="#2b1d14" stroke-width="1.4"/><path d="M-36-38H36C36-10 22 8 0 9-22 8-36-10-36-38Z" fill="url(#cBowl)" stroke="#2b1d14" stroke-width="1.6"/><path d="M-35.6-26C-20-20 20-20 35.6-26L34-17C20-11-20-11-34-17Z" fill="url(#gG)" stroke="#2b1d14" stroke-width="1"/><circle cx="-19" cy="-17.5" r="3" fill="url(#gemB)" stroke="#2b1d14" stroke-width=".7"/><circle cy="-15.5" r="3.6" fill="url(#gemG)" stroke="#2b1d14" stroke-width=".7"/><circle cx="19" cy="-17.5" r="3" fill="url(#gemB)" stroke="#2b1d14" stroke-width=".7"/><path d="M-14 -4C-8 2 8 2 14-4" fill="none" stroke="#ffd6c8" stroke-opacity=".5" stroke-width="1"/><ellipse cy="-38" rx="36" ry="6" fill="url(#gG)" stroke="#2b1d14" stroke-width="1.4"/><ellipse cy="-38" rx="30" ry="3.4" fill="#4a0810"/><path d="M-27-30C-27-14-20-4-10 1" fill="none" stroke="#fff" stroke-opacity=".6" stroke-width="4" stroke-linecap="round"/></g></defs><rect width="250" height="350" rx="14" fill="url(#paper)"/><rect x=".75" y=".75" width="248.5" height="348.5" rx="13.3" fill="none" stroke="#2b1d14" stroke-opacity=".35" stroke-width="1.5"/><path d="M119.5 9H18A9 9 0 0 0 9 18V332A9 9 0 0 0 18 341H119.5M130.5 9H232A9 9 0 0 0 241 18V332A9 9 0 0 0 232 341H130.5" fill="none" stroke="#c72b35" stroke-width="2.2" stroke-linecap="round"/><g clip-path="url(#pnl)"><rect x="18" y="18" width="214" height="314" fill="url(#pbg)"/><path d="M125 84L525 84L522.48 128.79ZM125 84L514.97 173.01L502.55 216.11ZM125 84L485.39 257.55L463.69 296.81ZM125 84L437.73 333.4L407.84 366.84ZM125 84L374.4 396.73L337.81 422.69ZM125 84L298.55 444.39L257.11 461.55ZM125 84L214.01 473.97L169.79 481.48ZM125 84L125 484L80.21 481.48ZM125 84L35.99 473.97L-7.11 461.55ZM125 84L-48.55 444.39L-87.81 422.69ZM125 84L-124.4 396.73L-157.84 366.84ZM125 84L-187.73 333.4L-213.69 296.81ZM125 84L-235.39 257.55L-252.55 216.11ZM125 84L-264.97 173.01L-272.48 128.79ZM125 84L-275 84L-272.48 39.21ZM125 84L-264.97 -5.01L-252.55 -48.11ZM125 84L-235.39 -89.55L-213.69 -128.81ZM125 84L-187.73 -165.4L-157.84 -198.84ZM125 84L-124.4 -228.73L-87.81 -254.69ZM125 84L-48.55 -276.39L-7.11 -293.55ZM125 84L35.99 -305.97L80.21 -313.48ZM125 84L125 -316L169.79 -313.48ZM125 84L214.01 -305.97L257.11 -293.55ZM125 84L298.55 -276.39L337.81 -254.69ZM125 84L374.4 -228.73L407.84 -198.84ZM125 84L437.73 -165.4L463.69 -128.81ZM125 84L485.39 -89.55L502.55 -48.11ZM125 84L514.97 -5.01L522.48 39.21Z" fill="#fff1ea" opacity=".45"/><path d="M14 26Q125 46 236 26" fill="none" stroke="#2b1d14" stroke-width="1"/><path d="M22 28.68H38V41.68L34 44.68L26 44.68Z" fill="#c7302f" stroke="#2b1d14" stroke-width=".8"/><circle cx="30" cy="35.68" r="2.2" fill="#fffaf0" opacity=".85"/><path d="M44 31.67H60V44.67L56 47.67L48 47.67Z" fill="#e3a51f" stroke="#2b1d14" stroke-width=".8"/><circle cx="52" cy="38.67" r="2.2" fill="#fffaf0" opacity=".85"/><path d="M66 33.89H82V46.89L78 49.89L70 49.89Z" fill="#f4efe3" stroke="#2b1d14" stroke-width=".8"/><circle cx="74" cy="40.89" r="2.2" fill="#fffaf0" opacity=".85"/><path d="M88 35.32H104V48.32L100 51.32L92 51.32Z" fill="#2b5aa8" stroke="#2b1d14" stroke-width=".8"/><circle cx="96" cy="42.32" r="2.2" fill="#fffaf0" opacity=".85"/><path d="M110 35.96H126V48.96L122 51.96L114 51.96Z" fill="#c7302f" stroke="#2b1d14" stroke-width=".8"/><circle cx="118" cy="42.96" r="2.2" fill="#fffaf0" opacity=".85"/><path d="M132 35.82H148V48.82L144 51.82L136 51.82Z" fill="#e3a51f" stroke="#2b1d14" stroke-width=".8"/><circle cx="140" cy="42.82" r="2.2" fill="#fffaf0" opacity=".85"/><path d="M154 34.89H170V47.89L166 50.89L158 50.89Z" fill="#f4efe3" stroke="#2b1d14" stroke-width=".8"/><circle cx="162" cy="41.89" r="2.2" fill="#fffaf0" opacity=".85"/><path d="M176 33.17H192V46.17L188 49.17L180 49.17Z" fill="#2b5aa8" stroke="#2b1d14" stroke-width=".8"/><circle cx="184" cy="40.17" r="2.2" fill="#fffaf0" opacity=".85"/><path d="M198 30.67H214V43.67L210 46.67L202 46.67Z" fill="#c7302f" stroke="#2b1d14" stroke-width=".8"/><circle cx="206" cy="37.67" r="2.2" fill="#fffaf0" opacity=".85"/><path d="M220 27.39H236V40.39L232 43.39L224 43.39Z" fill="#e3a51f" stroke="#2b1d14" stroke-width=".8"/><circle cx="228" cy="34.39" r="2.2" fill="#fffaf0" opacity=".85"/><rect x="18" y="296" width="214" height="36" fill="#f7efdc"/><path d="M29 301l6 6-6 6-6-6Z" fill="#e3a51f"/><circle cx="29" cy="307" r="1.8" fill="#f7efdc"/><path d="M29 323l6 6-6 6-6-6Z" fill="#c7302f"/><circle cx="29" cy="329" r="1.8" fill="#f7efdc"/><path d="M51 301l6 6-6 6-6-6Z" fill="#c7302f"/><circle cx="51" cy="307" r="1.8" fill="#f7efdc"/><path d="M51 323l6 6-6 6-6-6Z" fill="#e3a51f"/><circle cx="51" cy="329" r="1.8" fill="#f7efdc"/><path d="M73 301l6 6-6 6-6-6Z" fill="#e3a51f"/><circle cx="73" cy="307" r="1.8" fill="#f7efdc"/><path d="M73 323l6 6-6 6-6-6Z" fill="#c7302f"/><circle cx="73" cy="329" r="1.8" fill="#f7efdc"/><path d="M95 301l6 6-6 6-6-6Z" fill="#c7302f"/><circle cx="95" cy="307" r="1.8" fill="#f7efdc"/><path d="M95 323l6 6-6 6-6-6Z" fill="#e3a51f"/><circle cx="95" cy="329" r="1.8" fill="#f7efdc"/><path d="M117 301l6 6-6 6-6-6Z" fill="#e3a51f"/><circle cx="117" cy="307" r="1.8" fill="#f7efdc"/><path d="M117 323l6 6-6 6-6-6Z" fill="#c7302f"/><circle cx="117" cy="329" r="1.8" fill="#f7efdc"/><path d="M139 301l6 6-6 6-6-6Z" fill="#c7302f"/><circle cx="139" cy="307" r="1.8" fill="#f7efdc"/><path d="M139 323l6 6-6 6-6-6Z" fill="#e3a51f"/><circle cx="139" cy="329" r="1.8" fill="#f7efdc"/><path d="M161 301l6 6-6 6-6-6Z" fill="#e3a51f"/><circle cx="161" cy="307" r="1.8" fill="#f7efdc"/><path d="M161 323l6 6-6 6-6-6Z" fill="#c7302f"/><circle cx="161" cy="329" r="1.8" fill="#f7efdc"/><path d="M183 301l6 6-6 6-6-6Z" fill="#c7302f"/><circle cx="183" cy="307" r="1.8" fill="#f7efdc"/><path d="M183 323l6 6-6 6-6-6Z" fill="#e3a51f"/><circle cx="183" cy="329" r="1.8" fill="#f7efdc"/><path d="M205 301l6 6-6 6-6-6Z" fill="#e3a51f"/><circle cx="205" cy="307" r="1.8" fill="#f7efdc"/><path d="M205 323l6 6-6 6-6-6Z" fill="#c7302f"/><circle cx="205" cy="329" r="1.8" fill="#f7efdc"/><path d="M227 301l6 6-6 6-6-6Z" fill="#c7302f"/><circle cx="227" cy="307" r="1.8" fill="#f7efdc"/><path d="M227 323l6 6-6 6-6-6Z" fill="#e3a51f"/><circle cx="227" cy="329" r="1.8" fill="#f7efdc"/><path d="M40 296V332M62 296V332M84 296V332M106 296V332M128 296V332M150 296V332M172 296V332M194 296V332M216 296V332M18 318H232" stroke="#2b1d14" stroke-opacity=".25" stroke-width=".8"/><path d="M18 296H232" stroke="#2b1d14" stroke-width="1.4"/><path d="M99 112C82 150 74 205 70 246 86 240 104 244 125 240 146 244 164 240 180 246 176 205 168 150 151 112Z" fill="#c7302f" stroke="#2b1d14" stroke-width="1.6" stroke-linejoin="round"/><path d="M84 200C80 220 78 234 76 242M166 200C170 220 172 234 174 242" stroke="#2b1d14" stroke-opacity=".25" stroke-width="2" fill="none"/><path d="M115 226Q113 262 110 300" fill="none" stroke="#2b1d14" stroke-width="17.2" stroke-linecap="round" stroke-linejoin="round"/><path d="M115 226Q113 262 110 300" fill="none" stroke="#f3e6cc" stroke-width="14" stroke-linecap="round" stroke-linejoin="round"/><path d="M135 226Q137 262 140 300" fill="none" stroke="#2b1d14" stroke-width="17.2" stroke-linecap="round" stroke-linejoin="round"/><path d="M135 226Q137 262 140 300" fill="none" stroke="#f3e6cc" stroke-width="14" stroke-linecap="round" stroke-linejoin="round"/><path d="M97 306C97 298 104 296 112 298L117 302C117 308 110 310 100 310 97 310 97 308 97 306Z" fill="#3a2418" stroke="#2b1d14" stroke-width="1.3" stroke-linejoin="round"/><path d="M153 306C153 298 146 296 138 298L133 302C133 308 140 310 150 310 153 310 153 308 153 306Z" fill="#3a2418" stroke="#2b1d14" stroke-width="1.3" stroke-linejoin="round"/><path d="M100 112C94 112 92 118 93 126L99 176C92 196 87 212 85 228 101 234 113 231 125 234 137 231 149 234 165 228 163 212 158 196 151 176L157 126C158 118 156 112 150 112 140 118 110 118 100 112Z" fill="#f4e7c9" stroke="#2b1d14" stroke-width="1.6" stroke-linejoin="round"/><path d="M100 112C94 112 92 118 93 126L99 176C92 196 87 212 85 228 101 234 113 231 125 234 137 231 149 234 165 228 163 212 158 196 151 176L157 126C158 118 156 112 150 112 140 118 110 118 100 112Z" fill="url(#brc)"/><path d="M86.5 222C101 228 113 225 125 228 137 225 149 228 163.5 222" fill="none" stroke="#e3a51f" stroke-width="4"/><path d="M92 212L95.5 216L99 212L102.5 216L106 212L109.5 216L113 212L116.5 216L120 212L123.5 216L127 212L130.5 216L134 212L137.5 216L141 212L144.5 216L148 212L151.5 216L155 212" fill="none" stroke="#c7302f" stroke-width="1.6" stroke-linejoin="round"/><path d="M125 120V172" stroke="#e3a51f" stroke-width="5"/><circle cx="125" cy="128" r="2" fill="#ffe2c8" stroke="#2b1d14" stroke-width=".6"/><circle cx="125" cy="140" r="2" fill="#ffe2c8" stroke="#2b1d14" stroke-width=".6"/><circle cx="125" cy="152" r="2" fill="#ffe2c8" stroke="#2b1d14" stroke-width=".6"/><circle cx="125" cy="164" r="2" fill="#ffe2c8" stroke="#2b1d14" stroke-width=".6"/><path d="M98 172C110 177 140 177 152 172L153 182C140 187 110 187 97 182Z" fill="#3a2418" stroke="#2b1d14" stroke-width="1.2" stroke-linejoin="round"/><path d="M120 171H130V188H120Z" fill="url(#gGv)" stroke="#2b1d14" stroke-width="1" stroke-linejoin="round"/><circle cx="108" cy="114" r="4.4" fill="#fffaf0" stroke="#2b1d14" stroke-width=".9"/><circle cx="114" cy="114" r="4.4" fill="#fffaf0" stroke="#2b1d14" stroke-width=".9"/><circle cx="120" cy="114" r="4.4" fill="#fffaf0" stroke="#2b1d14" stroke-width=".9"/><circle cx="126" cy="114" r="4.4" fill="#fffaf0" stroke="#2b1d14" stroke-width=".9"/><circle cx="132" cy="114" r="4.4" fill="#fffaf0" stroke="#2b1d14" stroke-width=".9"/><circle cx="138" cy="114" r="4.4" fill="#fffaf0" stroke="#2b1d14" stroke-width=".9"/><g transform="translate(125 86) scale(1.12)"><circle cx="-15" cy="2" r="3.6" fill="#d9a072" stroke="#2b1d14" stroke-width="1.2"/><circle cx="15" cy="2" r="3.6" fill="#d9a072" stroke="#2b1d14" stroke-width="1.2"/><ellipse rx="15" ry="17.5" fill="#d9a072" stroke="#2b1d14" stroke-width="1.4"/><path d="M-15.5-4C-17-14-10-19 0-19 10-19 17-14 15.5-4 12-9 7-7 3-10-1-7-6-9-9-6-12-9-14-6-15.5-4Z" fill="#2a1a12" stroke="#2b1d14" stroke-width="1.1" stroke-linejoin="round"/><path d="M-15.5-4C-17 2-17 8-15 12-13 8-13 2-12-3ZM15.5-4C17 2 17 8 15 12 13 8 13 2 12-3Z" fill="#2a1a12" stroke="#2b1d14" stroke-width=".9" stroke-linejoin="round"/><ellipse cx="-7.6" cy="0" rx="1.8" ry="2.4" fill="#2b1d14"/><circle cx="-7.1" cy="-.8" r=".6" fill="#fff"/><path d="M-4.4 -5.6Q-7.6 -8 -10.6 -6" fill="none" stroke="#2b1d14" stroke-width="1.3" stroke-linecap="round"/><circle cx="-10.6" cy="6.8" r="3.4" fill="#ef5f55" opacity=".38"/><ellipse cx="3.6" cy="0" rx="1.8" ry="2.4" fill="#2b1d14"/><circle cx="4.1" cy="-.8" r=".6" fill="#fff"/><path d="M.4 -5.6Q3.6 -8 6.6 -6" fill="none" stroke="#2b1d14" stroke-width="1.3" stroke-linecap="round"/><circle cx="6.6" cy="6.8" r="3.4" fill="#ef5f55" opacity=".38"/><path d="M-1.6 1Q.6 6 -2.6 6.6" fill="none" stroke="#9a5032" stroke-width="1.2" stroke-linecap="round"/><path d="M-5.4 10.6Q-2 13.4 1.4 10.6" fill="none" stroke="#7a2a1e" stroke-width="1.3" stroke-linecap="round"/><path d="M-21-9C-24-22-8-31 5-29 19-27 25-18 21-9 10-13-10-13-21-9Z" fill="#2b5aa8" stroke="#2b1d14" stroke-width="1.4" stroke-linejoin="round"/><path d="M-20-10C-10-14 10-14 20-10L19-6C10-9-10-9-19-6Z" fill="#c7302f" stroke="#2b1d14" stroke-width="1.1" stroke-linejoin="round"/><path d="M12-24C18-40 34-50 46-44 38-40 30-34 20-22Z" fill="#fffaf0" stroke="#2b1d14" stroke-width="1.1" stroke-linejoin="round"/><path d="M16-24C24-36 34-42 42-43" fill="none" stroke="#2b1d14" stroke-width=".8"/><circle cx="13" cy="-22" r="3.2" fill="url(#gemR)" stroke="#2b1d14" stroke-width=".8"/></g><path d="M150 122Q168 150 150 172" fill="none" stroke="#2b1d14" stroke-width="16.2" stroke-linecap="round" stroke-linejoin="round"/><path d="M150 122Q168 150 150 172" fill="none" stroke="#2b5aa8" stroke-width="13" stroke-linecap="round" stroke-linejoin="round"/><circle cx="150" cy="172" r="5.6" fill="#d9a072" stroke="#2b1d14" stroke-width="1.3"/><path d="M100 122Q78 104 80 72" fill="none" stroke="#2b1d14" stroke-width="16.2" stroke-linecap="round" stroke-linejoin="round"/><path d="M100 122Q78 104 80 72" fill="none" stroke="#2b5aa8" stroke-width="13" stroke-linecap="round" stroke-linejoin="round"/><circle cx="100" cy="121" r="10" fill="#c7302f" stroke="#2b1d14" stroke-width="1.4"/><path d="M96 112V130M104 112V130" stroke="#ffe2c8" stroke-width="1.6"/><circle cx="150" cy="121" r="10" fill="#c7302f" stroke="#2b1d14" stroke-width="1.4"/><path d="M146 112V130M154 112V130" stroke="#ffe2c8" stroke-width="1.6"/><use href="#em-c" transform="translate(80 70) rotate(-8) scale(.5) translate(0 -22)"/><circle cx="80" cy="72" r="5.6" fill="#d9a072" stroke="#2b1d14" stroke-width="1.3"/></g><rect x="18" y="18" width="214" height="314" rx="6" fill="none" stroke="#2b1d14" stroke-width="2"/><g><path d="M13 10H53Q56 10 56 13V103Q56 110 49 110H17Q10 110 10 103V13Q10 10 13 10Z" fill="#fbf4e2" stroke="#c72b35" stroke-width="1.6"/><g fill="none" stroke="#b0192a" stroke-width="14" stroke-linecap="round" stroke-linejoin="round"><path d="M12 18 27 5V75M12 75H42" transform="translate(10.58 16) scale(.41 .62)"/><path d="M25 5C11 5 6 22 6 40S11 75 25 75 44 58 44 40 39 5 25 5Z" transform="translate(32.79 16) scale(.41 .62)"/></g><g transform="translate(33 90) scale(.26)"><path d="M-40-42H40C40-6 20 8 7 10V24C19 28 28 34 30 46H-30C-28 34-19 28-7 24V10C-20 8-40-6-40-42Z" fill="#d42d36" stroke="#2b1d14" stroke-width="6.5" stroke-linejoin="round"/></g></g><g transform="rotate(180 125 175)"><path d="M13 10H53Q56 10 56 13V103Q56 110 49 110H17Q10 110 10 103V13Q10 10 13 10Z" fill="#fbf4e2" stroke="#c72b35" stroke-width="1.6"/><g fill="none" stroke="#b0192a" stroke-width="14" stroke-linecap="round" stroke-linejoin="round"><path d="M12 18 27 5V75M12 75H42" transform="translate(10.58 16) scale(.41 .62)"/><path d="M25 5C11 5 6 22 6 40S11 75 25 75 44 58 44 40 39 5 25 5Z" transform="translate(32.79 16) scale(.41 .62)"/></g><g transform="translate(33 90) scale(.26)"><path d="M-40-42H40C40-6 20 8 7 10V24C19 28 28 34 30 46H-30C-28 34-19 28-7 24V10C-20 8-40-6-40-42Z" fill="#d42d36" stroke="#2b1d14" stroke-width="6.5" stroke-linejoin="round"/></g></g></svg>
