<svg xmlns="http://www.w3.org/2000/svg" viewBox="0 0 250 350" width="250" height="350"><defs><radialGradient id="paper" cx=".5" cy=".45" r=".75"><stop offset="0" stop-color="#fffaf0"/><stop offset=".7" stop-color="#fbf1dc"/><stop offset="1" stop-color="#f1e2c0"/></radialGradient><clipPath id="pnl"><rect x="18" y="18" width="214" height="314" rx="6"/></clipPath><radialGradient id="pbg" cx=".5" cy=".3" r=".85"><stop offset="0" stop-color="#fde3d8"/><stop offset="1" stop-color="#ee8f7f"/></radialGradient><pattern id="brc" width="14" height="14" patternUnits="userSpaceOnUse"><g fill="#ffe08a" opacity=".55"><circle cx="7" cy="4.6" r="1.1"/><circle cx="7" cy="9.4" r="1.1"/><circle cx="4.6" cy="7" r="1.1"/><circle cx="9.4" cy="7" r="1.1"/><circle cx="0" cy="0" r=".9"/><circle cx="14" cy="0" r=".9"/><circle cx="0" cy="14" r=".9"/><circle cx="14" cy="14" r=".9"/></g></pattern><linearGradient id="gGv" x1="0" y1="0" x2="0" y2="1"><stop offset="0" stop-color="#fff3b0"/><stop offset=".45" stop-color="#e9b632"/><stop offset="1" stop-color="#9a6508"/></linearGradient><radialGradient id="gemR" cx=".35" cy=".35" r=".7"><stop offset="0" stop-color="#ff9a8a"/><stop offset=".5" stop-color="#d3262f"/><stop offset="1" stop-color="#6e0a12"/></radialGradient><radialGradient id="gemB" cx=".35" cy=".35" r=".7"><stop offset="0" stop-color="#b8dcff"/><stop offset=".5" stop-color="#2f72d8"/><stop offset="1" stop-color="#0f2f6e"/></radialGradient><radialGradient id="gemG" cx=".35" cy=".35" r=".7"><stop offset="0" stop-color="#c8f5a8"/><stop offset=".5" stop-color="#2f9a44"/><stop offset="1" stop-color="#0e4a1c"/></radialGradient><linearGradient id="gG" x1="0" y1="0" x2="1" y2="1"><stop offset="0" stop-color="#fff3b0"/><stop offset=".35" stop-color="#f2c442"/><stop offset=".7" stop-color="#cf9318"/><stop offset="1" stop-color="#8f5a06"/></linearGradient><linearGradient id="cBowl" x1="0" y1="0" x2="1" y2="0"><stop offset="0" stop-color="#6e0c14"/><stop offset=".3" stop-color="#c62a33"/><stop offset=".47" stop-color="#f37a68"/><stop offset=".55" stop-color="#d9393c"/><stop offset=".8" stop-color="#a91c26"/><stop offset="1" stop-color="#5e0a12"/></linearGradient><radialGradient id="gemB" cx=".35" cy=".35" r=".7"><stop offset="0" stop-color="#b8dcff"/><stop offset=".5" stop-color="#2f72d8"/><stop offset="1" stop-color="#0f2f6e"/></radialGradient><radialGradient id="gemG" cx=".35" cy=".35" r=".7"><stop offset="0" stop-color="#c8f5a8"/><stop offset=".5" stop-color="#2f9a44"/><stop offset="1" stop-color="#0e4a1c"/></radialGradient><g id="em-c"><ellipse cy="47" rx="28" ry="4" fill="#000" opacity=".16"/><path d="M-27 46C-25 39-12 36-6 31H6C12 36 25 39 27 46Z" fill="url(#gG)" stroke="#2b1d14" stroke-width="1.4"/><path d="M-21 42.5H21" stroke="#9a6508" stroke-width=".9"/><path d="M-5 8H5L4 16C11 18 11 26 4 28L5 32H-5L-4 28C-11 26-11 18-4 16Z" fill="url(#gG)" stroke="#2b1d14" stroke-width="1.4"/><path d="M-36-38H36C36-10 22 8 0 9-22 8-36-10-36-38Z" fill="url(#cBowl)" stroke="#2b1d14" stroke-width="1.6"/><path d="M-35.6-26C-20-20 20-20 35.6-26L34-17C20-11-20-11-34-17Z" fill="url(#gG)" stroke="#2b1d14" stroke-width="1"/><circle cx="-19" cy="-17.5" r="3" fill="url(#gemB)" stroke="#2b1d14" stroke-width=".7"/><circle cy="-15.5" r="3.6" fill="url(#gemG)" stroke="#2b1d14" stroke-width=".7"/><circle cx="19" cy="-17.5" r="3" fill="url(#gemB)" stroke="#2b1d14" stroke-width=".7"/><path d="M-14 -4C-8 2 8 2 14-4" fill="none" stroke="#ffd6c8" stroke-opacity=".5" stroke-width="1"/><ellipse cy="-38" rx="36" ry="6" fill="url(#gG)" stroke="#2b1d14" stroke-width="1.4"/><ellipse cy="-38" rx="30" ry="3.4" fill="#4a0810"/><path d="M-27-30C-27-14-20-4-10 1" fill="none" stroke="#fff" stroke-opacity=".6" stroke-width="4" stroke-linecap="round"/></g></defs><rect width="250" height="350" rx="14" fill="url(#paper)"/><rect x=".75" y=".75" width="248.5" height="348.5" rx="13.3" fill="none" stroke="#2b1d14" stroke-opacity=".35" stroke-width="1.5"/><path d="M119.5 9H18A9 9 0 0 0 9 18V332A9 9 0 0 0 18 341H119.5M130.5 9H232A9 9 0 0 0 241 18V332A9 9 0 0 0 232 341H130.5" fill="none" stroke="#c72b35" stroke-width="2.2" stroke-linecap="round"/><g clip-path="url(#pnl)"><rect x="18" y="18" width="214" height="314" fill="url(#pbg)"/><path d="M125 96L525 96L522.48 140.79ZM125 96L514.97 185.01L502.55 228.11ZM125 96L485.39 269.55L463.69 308.81ZM125 96L437.73 345.4L407.84 378.84ZM125 96L374.4 408.73L337.81 434.69ZM125 96L298.55 456.39L257.11 473.55ZM125 96L214.01 485.97L169.79 493.48ZM125 96L125 496L80.21 493.48ZM125 96L35.99 485.97L-7.11 473.55ZM125 96L-48.55 456.39L-87.81 434.69ZM125 96L-124.4 408.73L-157.84 378.84ZM125 96L-187.73 345.4L-213.69 308.81ZM125 96L-235.39 269.55L-252.55 228.11ZM125 96L-264.97 185.01L-272.48 140.79ZM125 96L-275 96L-272.48 51.21ZM125 96L-264.97 6.99L-252.55 -36.11ZM125 96L-235.39 -77.55L-213.69 -116.81ZM125 96L-187.73 -153.4L-157.84 -186.84ZM125 96L-124.4 -216.73L-87.81 -242.69ZM125 96L-48.55 -264.39L-7.11 -281.55ZM125 96L35.99 -293.97L80.21 -301.48ZM125 96L125 -304L169.79 -301.48ZM125 96L214.01 -293.97L257.11 -281.55ZM125 96L298.55 -264.39L337.81 -242.69ZM125 96L374.4 -216.73L407.84 -186.84ZM125 96L437.73 -153.4L463.69 -116.81ZM125 96L485.39 -77.55L502.55 -36.11ZM125 96L514.97 6.99L522.48 51.21Z" fill="#fff1ea" opacity=".45"/><rect x="18" y="300" width="214" height="32" fill="#f7efdc"/><path d="M29 305l6 6-6 6-6-6Z" fill="#2b5aa8"/><circle cx="29" cy="311" r="1.8" fill="#f7efdc"/><path d="M29 327l6 6-6 6-6-6Z" fill="#c7302f"/><circle cx="29" cy="333" r="1.8" fill="#f7efdc"/><path d="M51 305l6 6-6 6-6-6Z" fill="#c7302f"/><circle cx="51" cy="311" r="1.8" fill="#f7efdc"/><path d="M51 327l6 6-6 6-6-6Z" fill="#2b5aa8"/><circle cx="51" cy="333" r="1.8" fill="#f7efdc"/><path d="M73 305l6 6-6 6-6-6Z" fill="#2b5aa8"/><circle cx="73" cy="311" r="1.8" fill="#f7efdc"/><path d="M73 327l6 6-6 6-6-6Z" fill="#c7302f"/><circle cx="73" cy="333" r="1.8" fill="#f7efdc"/><path d="M95 305l6 6-6 6-6-6Z" fill="#c7302f"/><circle cx="95" cy="311" r="1.8" fill="#f7efdc"/><path d="M95 327l6 6-6 6-6-6Z" fill="#2b5aa8"/><circle cx="95" cy="333" r="1.8" fill="#f7efdc"/><path d="M117 305l6 6-6 6-6-6Z" fill="#2b5aa8"/><circle cx="117" cy="311" r="1.8" fill="#f7efdc"/><path d="M117 327l6 6-6 6-6-6Z" fill="#c7302f"/><circle cx="117" cy="333" r="1.8" fill="#f7efdc"/><path d="M139 305l6 6-6 6-6-6Z" fill="#c7302f"/><circle cx="139" cy="311" r="1.8" fill="#f7efdc"/><path d="M139 327l6 6-6 6-6-6Z" fill="#2b5aa8"/><circle cx="139" cy="333" r="1.8" fill="#f7efdc"/><path d="M161 305l6 6-6 6-6-6Z" fill="#2b5aa8"/><circle cx="161" cy="311" r="1.8" fill="#f7efdc"/><path d="M161 327l6 6-6 6-6-6Z" fill="#c7302f"/><circle cx="161" cy="333" r="1.8" fill="#f7efdc"/><path d="M183 305l6 6-6 6-6-6Z" fill="#c7302f"/><circle cx="183" cy="311" r="1.8" fill="#f7efdc"/><path d="M183 327l6 6-6 6-6-6Z" fill="#2b5aa8"/><circle cx="183" cy="333" r="1.8" fill="#f7efdc"/><path d="M205 305l6 6-6 6-6-6Z" fill="#2b5aa8"/><circle cx="205" cy="311" r="1.8" fill="#f7efdc"/><path d="M205 327l6 6-6 6-6-6Z" fill="#c7302f"/><circle cx="205" cy="333" r="1.8" fill="#f7efdc"/><path d="M227 305l6 6-6 6-6-6Z" fill="#c7302f"/><circle cx="227" cy="311" r="1.8" fill="#f7efdc"/><path d="M227 327l6 6-6 6-6-6Z" fill="#2b5aa8"/><circle cx="227" cy="333" r="1.8" fill="#f7efdc"/><path d="M40 300V332M62 300V332M84 300V332M106 300V332M128 300V332M150 300V332M172 300V332M194 300V332M216 300V332M18 322H232" stroke="#2b1d14" stroke-opacity=".25" stroke-width=".8"/><path d="M18 300H232" stroke="#2b1d14" stroke-width="1.4"/><path d="M58 268V112C58 70 88 46 125 46 162 46 192 70 192 112V268Z" fill="url(#gGv)" stroke="#2b1d14" stroke-width="1.8" stroke-linejoin="round"/><path d="M68 268V116C68 80 94 58 125 58 156 58 182 80 182 116V268Z" fill="#2b5aa8" stroke="#2b1d14" stroke-width="1.4" stroke-linejoin="round"/><path d="M80 70l6 8-6 8-6-8ZM80 92l6 8-6 8-6-8ZM80 114l6 8-6 8-6-8ZM80 136l6 8-6 8-6-8ZM80 158l6 8-6 8-6-8ZM80 180l6 8-6 8-6-8ZM98 70l6 8-6 8-6-8ZM98 92l6 8-6 8-6-8ZM98 114l6 8-6 8-6-8ZM98 136l6 8-6 8-6-8ZM98 158l6 8-6 8-6-8ZM98 180l6 8-6 8-6-8ZM116 70l6 8-6 8-6-8ZM116 92l6 8-6 8-6-8ZM116 114l6 8-6 8-6-8ZM116 136l6 8-6 8-6-8ZM116 158l6 8-6 8-6-8ZM116 180l6 8-6 8-6-8ZM116 202l6 8-6 8-6-8ZM134 70l6 8-6 8-6-8ZM134 92l6 8-6 8-6-8ZM134 114l6 8-6 8-6-8ZM134 136l6 8-6 8-6-8ZM134 158l6 8-6 8-6-8ZM134 180l6 8-6 8-6-8ZM134 202l6 8-6 8-6-8ZM152 70l6 8-6 8-6-8ZM152 92l6 8-6 8-6-8ZM152 114l6 8-6 8-6-8ZM152 136l6 8-6 8-6-8ZM152 158l6 8-6 8-6-8ZM152 180l6 8-6 8-6-8ZM170 70l6 8-6 8-6-8ZM170 92l6 8-6 8-6-8ZM170 114l6 8-6 8-6-8ZM170 136l6 8-6 8-6-8ZM170 158l6 8-6 8-6-8ZM170 180l6 8-6 8-6-8Z" fill="#fff" opacity=".14"/><path d="M114 30C114 20 136 20 136 30L140 46H110Z" fill="url(#gGv)" stroke="#2b1d14" stroke-width="1.4" stroke-linejoin="round"/><g transform="translate(125 34) scale(.14)"><path d="M-40-42H40C40-6 20 8 7 10V24C19 28 28 34 30 46H-30C-28 34-19 28-7 24V10C-20 8-40-6-40-42Z" fill="#d42d36" stroke="#2b1d14" stroke-width="6.5" stroke-linejoin="round"/></g><circle cx="58" cy="104" r="8" fill="url(#gGv)" stroke="#2b1d14" stroke-width="1.4"/><circle cx="192" cy="104" r="8" fill="url(#gGv)" stroke="#2b1d14" stroke-width="1.4"/><path d="M96 120C72 146 64 210 64 292H186C186 210 178 146 154 120Z" fill="#7a1a2a" stroke="#2b1d14" stroke-width="1.6" stroke-linejoin="round"/><path d="M100 120C94 120 90 126 91 134L96 196C86 206 82 222 84 236 84 260 84 280 86 296H164C166 280 166 260 166 236 168 222 164 206 154 196L159 134C160 126 156 120 150 120Z" fill="#c7302f" stroke="#2b1d14" stroke-width="1.6" stroke-linejoin="round"/><path d="M100 120C94 120 90 126 91 134L96 196C86 206 82 222 84 236 84 260 84 280 86 296H164C166 280 166 260 166 236 168 222 164 206 154 196L159 134C160 126 156 120 150 120Z" fill="url(#brc)"/><path d="M88 232C110 240 140 240 162 232" stroke="#2b1d14" stroke-opacity=".3" stroke-width="2" fill="none"/><path d="M118 124H132L134 296H116Z" fill="#fffaf0" stroke="#2b1d14" stroke-width="1.2" stroke-linejoin="round"/><path d="M122 140l-1.4 4h2.8Z" fill="#2b1d14"/><path d="M128 160l-1.4 4h2.8Z" fill="#2b1d14"/><path d="M121 182l-1.4 4h2.8Z" fill="#2b1d14"/><path d="M128 204l-1.4 4h2.8Z" fill="#2b1d14"/><path d="M122 228l-1.4 4h2.8Z" fill="#2b1d14"/><path d="M128 252l-1.4 4h2.8Z" fill="#2b1d14"/><path d="M122 276l-1.4 4h2.8Z" fill="#2b1d14"/><path d="M84 284C110 290 140 290 166 284L167 298C140 304 110 304 83 298Z" fill="#fffaf0" stroke="#2b1d14" stroke-width="1.2" stroke-linejoin="round"/><path d="M92 290l-1.4 4h2.8Z" fill="#2b1d14"/><path d="M106 293l-1.4 4h2.8Z" fill="#2b1d14"/><path d="M120 294l-1.4 4h2.8Z" fill="#2b1d14"/><path d="M134 294l-1.4 4h2.8Z" fill="#2b1d14"/><path d="M148 293l-1.4 4h2.8Z" fill="#2b1d14"/><path d="M160 290l-1.4 4h2.8Z" fill="#2b1d14"/><path d="M94 192C110 198 140 198 156 192L156 202C140 208 110 208 94 202Z" fill="url(#gGv)" stroke="#2b1d14" stroke-width="1.2" stroke-linejoin="round"/><circle cx="125" cy="199" r="3.4" fill="url(#gemR)" stroke="#2b1d14" stroke-width=".8"/><path d="M92 304C100 296 150 296 158 304 160 312 90 312 92 304Z" fill="#e3a51f" stroke="#2b1d14" stroke-width="1.3" stroke-linejoin="round"/><path d="M104 300C104 292 114 292 118 296L118 302H104Z" fill="#3a2418" stroke="#2b1d14" stroke-width="1.2" stroke-linejoin="round"/><path d="M146 300C146 292 136 292 132 296L132 302H146Z" fill="#3a2418" stroke="#2b1d14" stroke-width="1.2" stroke-linejoin="round"/><path d="M98 118C110 112 140 112 152 118 160 124 162 134 158 140 142 136 108 136 92 140 88 134 90 124 98 118Z" fill="#fffaf0" stroke="#2b1d14" stroke-width="1.2" stroke-linejoin="round"/><path d="M100 126l-1.4 4h2.8Z" fill="#2b1d14"/><path d="M112 130l-1.4 4h2.8Z" fill="#2b1d14"/><path d="M125 127l-1.4 4h2.8Z" fill="#2b1d14"/><path d="M138 130l-1.4 4h2.8Z" fill="#2b1d14"/><path d="M150 126l-1.4 4h2.8Z" fill="#2b1d14"/><g transform="translate(125 92) scale(1.18)"><path d="M-17-6C-21 6-20 16-16 22H16C20 16 21 6 17-6Z" fill="#3a2418" stroke="#2b1d14" stroke-width="1.3" stroke-linejoin="round"/><circle cx="-15" cy="2" r="3.6" fill="#d9a072" stroke="#2b1d14" stroke-width="1.2"/><circle cx="15" cy="2" r="3.6" fill="#d9a072" stroke="#2b1d14" stroke-width="1.2"/><ellipse rx="15" ry="17.5" fill="#d9a072" stroke="#2b1d14" stroke-width="1.4"/><path d="M-15-6C-16-13-9-16 0-16 9-16 16-13 15-6 8-9-8-9-15-6Z" fill="#3a2418" stroke="#2b1d14" stroke-width="1" stroke-linejoin="round"/><ellipse cx="-3.6" cy="0" rx="1.8" ry="2.4" fill="#2b1d14"/><circle cx="-3.1" cy="-.8" r=".6" fill="#fff"/><path d="M-.4 -5.6Q-3.6 -8 -6.6 -6" fill="none" stroke="#2b1d14" stroke-width="1.3" stroke-linecap="round"/><circle cx="-6.6" cy="6.8" r="3.4" fill="#ef5f55" opacity=".38"/><ellipse cx="7.6" cy="0" rx="1.8" ry="2.4" fill="#2b1d14"/><circle cx="8.1" cy="-.8" r=".6" fill="#fff"/><path d="M4.4 -5.6Q7.6 -8 10.6 -6" fill="none" stroke="#2b1d14" stroke-width="1.3" stroke-linecap="round"/><circle cx="10.6" cy="6.8" r="3.4" fill="#ef5f55" opacity=".38"/><path d="M2.4 1Q4.6 6 1.4 6.6" fill="none" stroke="#9a5032" stroke-width="1.2" stroke-linecap="round"/><path d="M-15 1C-16 18-10 31 0 35 10 31 16 18 15 1 12 9 8 12 3 12 1 10-1 10-3 12-8 12-12 9-15 1Z" fill="#3a2418" stroke="#2b1d14" stroke-width="1.2" stroke-linejoin="round"/><path d="M-4 22 0 30M4 22 0 30M-8 16-6 24M8 16 6 24" stroke="#2b1d14" stroke-opacity=".35" stroke-width=".9" fill="none"/><path d="M-1 14.6Q2 16.8 5 14.6" fill="none" stroke="#7a2a1e" stroke-width="1.3" stroke-linecap="round"/><path d="M2 8.4C-1 6.6 -6.5 7.4 -9 11.4 -5.4 9.6 -1 10.2 2 9.6 5 10.2 9.4 9.6 13 11.4 10.5 7.4 5 6.6 2 8.4Z" fill="#3a2418" stroke="#2b1d14" stroke-width=".8" stroke-linejoin="round"/><path d="M-17 -11 -19 -34 -10 -24 -5 -40 0 -27 5 -40 10 -24 19 -34 17 -11Z" fill="url(#gGv)" stroke="#2b1d14" stroke-width="1.4" stroke-linejoin="round"/><circle cx="-19" cy="-36" r="2.6" fill="#fff3b0" stroke="#2b1d14" stroke-width=".9"/><circle cx="-5" cy="-42" r="2.6" fill="#fff3b0" stroke="#2b1d14" stroke-width=".9"/><circle cx="5" cy="-42" r="2.6" fill="#fff3b0" stroke="#2b1d14" stroke-width=".9"/><circle cx="19" cy="-36" r="2.6" fill="#fff3b0" stroke="#2b1d14" stroke-width=".9"/><path d="M-17.5-17H17.5L17-10H-17Z" fill="url(#gGv)" stroke="#2b1d14" stroke-width="1.1" stroke-linejoin="round"/><circle cx="0" cy="-13.5" r="2.6" fill="url(#gemR)" stroke="#2b1d14" stroke-width=".7"/><circle cx="-10" cy="-13.5" r="1.9" fill="url(#gemB)" stroke="#2b1d14" stroke-width=".6"/><circle cx="10" cy="-13.5" r="1.9" fill="url(#gemG)" stroke="#2b1d14" stroke-width=".6"/></g><path d="M150 132Q172 166 176 196" fill="none" stroke="#2b1d14" stroke-width="17.2" stroke-linecap="round" stroke-linejoin="round"/><path d="M150 132Q172 166 176 196" fill="none" stroke="#c7302f" stroke-width="14" stroke-linecap="round" stroke-linejoin="round"/><circle cx="176" cy="198" r="6" fill="#d9a072" stroke="#2b1d14" stroke-width="1.3"/><path d="M100 132Q92 172 114 180" fill="none" stroke="#2b1d14" stroke-width="17.2" stroke-linecap="round" stroke-linejoin="round"/><path d="M100 132Q92 172 114 180" fill="none" stroke="#c7302f" stroke-width="14" stroke-linecap="round" stroke-linejoin="round"/><use href="#em-c" transform="translate(120 176) rotate(0) scale(.52) translate(0 -22)"/><circle cx="114" cy="180" r="6" fill="#d9a072" stroke="#2b1d14" stroke-width="1.3"/></g><rect x="18" y="18" width="214" height="314" rx="6" fill="none" stroke="#2b1d14" stroke-width="2"/><g><path d="M13 10H53Q56 10 56 13V103Q56 110 49 110H17Q10 110 10 103V13Q10 10 13 10Z" fill="#fbf4e2" stroke="#c72b35" stroke-width="1.6"/><g fill="none" stroke="#b0192a" stroke-width="14" stroke-linecap="round" stroke-linejoin="round"><path d="M12 18 27 5V75M12 75H42" transform="translate(10.58 16) scale(.41 .62)"/><path d="M8 20C9 10 16 5 25 5 36 5 43 12 43 22 43 36 26 46 8 75H44" transform="translate(32.79 16) scale(.41 .62)"/></g><g transform="translate(33 90) scale(.26)"><path d="M-40-42H40C40-6 20 8 7 10V24C19 28 28 34 30 46H-30C-28 34-19 28-7 24V10C-20 8-40-6-40-42Z" fill="#d42d36" stroke="#2b1d14" stroke-width="6.5" stroke-linejoin="round"/></g></g><g transform="rotate(180 125 175)"><path d="M13 10H53Q56 10 56 13V103Q56 110 49 110H17Q10 110 10 103V13Q10 10 13 10Z" fill="#fbf4e2" stroke="#c72b35" stroke-width="1.6"/><g fill="none" stroke="#b0192a" stroke-width="14" stroke-linecap="round" stroke-linejoin="round"><path d="M12 18 27 5V75M12 75H42" transform="translate(10.58 16) scale(.41 .62)"/><path d="M8 20C9 10 16 5 25 5 36 5 43 12 43 22 43 36 26 46 8 75H44" transform="translate(32.79 16) scale(.41 .62)"/></g><g transform="translate(33 90) scale(.26)"><path d="M-40-42H40C40-6 20 8 7 10V24C19 28 28 34 30 46H-30C-28 34-19 28-7 24V10C-20 8-40-6-40-42Z" fill="#d42d36" stroke="#2b1d14" stroke-width="6.5" stroke-linejoin="round"/></g></g></svg>
