<svg xmlns="http://www.w3.org/2000/svg" viewBox="0 0 250 350" width="250" height="350"><defs><radialGradient id="paper" cx=".5" cy=".45" r=".75"><stop offset="0" stop-color="#fffaf0"/><stop offset=".7" stop-color="#fbf1dc"/><stop offset="1" stop-color="#f1e2c0"/></radialGradient><linearGradient id="oRim" x1="0" y1="0" x2="1" y2="1"><stop offset="0" stop-color="#fff0a8"/><stop offset=".35" stop-color="#f0bf3a"/><stop offset=".7" stop-color="#c88912"/><stop offset="1" stop-color="#8f5a06"/></linearGradient><radialGradient id="oFace" cx=".4" cy=".35" r=".7"><stop offset="0" stop-color="#fff6cc"/><stop offset=".55" stop-color="#f6c94c"/><stop offset="1" stop-color="#d38f18"/></radialGradient><radialGradient id="gemR" cx=".35" cy=".35" r=".7"><stop offset="0" stop-color="#ff9a8a"/><stop offset=".5" stop-color="#d3262f"/><stop offset="1" stop-color="#6e0a12"/></radialGradient><g id="em-o"><circle r="46" cy="3" fill="#000" opacity=".16"/><circle r="46" fill="url(#oRim)" stroke="#2b1d14" stroke-width="1.6"/><g fill="#fff1b8" stroke="#7a4b00" stroke-width=".5"><circle cx="41.5" cy="0" r="2.1"/><circle cx="40.46" cy="9.23" r="2.1"/><circle cx="37.39" cy="18.01" r="2.1"/><circle cx="32.45" cy="25.87" r="2.1"/><circle cx="25.87" cy="32.45" r="2.1"/><circle cx="18.01" cy="37.39" r="2.1"/><circle cx="9.23" cy="40.46" r="2.1"/><circle cx="0" cy="41.5" r="2.1"/><circle cx="-9.23" cy="40.46" r="2.1"/><circle cx="-18.01" cy="37.39" r="2.1"/><circle cx="-25.87" cy="32.45" r="2.1"/><circle cx="-32.45" cy="25.87" r="2.1"/><circle cx="-37.39" cy="18.01" r="2.1"/><circle cx="-40.46" cy="9.23" r="2.1"/><circle cx="-41.5" cy="0" r="2.1"/><circle cx="-40.46" cy="-9.23" r="2.1"/><circle cx="-37.39" cy="-18.01" r="2.1"/><circle cx="-32.45" cy="-25.87" r="2.1"/><circle cx="-25.87" cy="-32.45" r="2.1"/><circle cx="-18.01" cy="-37.39" r="2.1"/><circle cx="-9.23" cy="-40.46" r="2.1"/><circle cx="0" cy="-41.5" r="2.1"/><circle cx="9.23" cy="-40.46" r="2.1"/><circle cx="18.01" cy="-37.39" r="2.1"/><circle cx="25.87" cy="-32.45" r="2.1"/><circle cx="32.45" cy="-25.87" r="2.1"/><circle cx="37.39" cy="-18.01" r="2.1"/><circle cx="40.46" cy="-9.23" r="2.1"/></g><circle r="37" fill="url(#oFace)" stroke="#7a4b00" stroke-width="1.3"/><g stroke="#a86b08" stroke-width="1.4" stroke-linecap="round"><path d="M23 0L33 0"/><path d="M22.22 5.95L28.01 7.51"/><path d="M19.92 11.5L28.58 16.5"/><path d="M16.26 16.26L20.51 20.51"/><path d="M11.5 19.92L16.5 28.58"/><path d="M5.95 22.22L7.51 28.01"/><path d="M0 23L0 33"/><path d="M-5.95 22.22L-7.51 28.01"/><path d="M-11.5 19.92L-16.5 28.58"/><path d="M-16.26 16.26L-20.51 20.51"/><path d="M-19.92 11.5L-28.58 16.5"/><path d="M-22.22 5.95L-28.01 7.51"/><path d="M-23 0L-33 0"/><path d="M-22.22 -5.95L-28.01 -7.51"/><path d="M-19.92 -11.5L-28.58 -16.5"/><path d="M-16.26 -16.26L-20.51 -20.51"/><path d="M-11.5 -19.92L-16.5 -28.58"/><path d="M-5.95 -22.22L-7.51 -28.01"/><path d="M0 -23L0 -33"/><path d="M5.95 -22.22L7.51 -28.01"/><path d="M11.5 -19.92L16.5 -28.58"/><path d="M16.26 -16.26L20.51 -20.51"/><path d="M19.92 -11.5L28.58 -16.5"/><path d="M22.22 -5.95L28.01 -7.51"/></g><circle r="21" fill="none" stroke="#a86b08" stroke-width=".9" stroke-dasharray="2 2.2"/><g fill="#ffd75a" stroke="#8a5a00" stroke-width=".8"><path d="M0-19C5-14 5-8 0-4-5-8-5-14 0-19Z" transform="rotate(0)"/><path d="M0-19C5-14 5-8 0-4-5-8-5-14 0-19Z" transform="rotate(45)"/><path d="M0-19C5-14 5-8 0-4-5-8-5-14 0-19Z" transform="rotate(90)"/><path d="M0-19C5-14 5-8 0-4-5-8-5-14 0-19Z" transform="rotate(135)"/><path d="M0-19C5-14 5-8 0-4-5-8-5-14 0-19Z" transform="rotate(180)"/><path d="M0-19C5-14 5-8 0-4-5-8-5-14 0-19Z" transform="rotate(225)"/><path d="M0-19C5-14 5-8 0-4-5-8-5-14 0-19Z" transform="rotate(270)"/><path d="M0-19C5-14 5-8 0-4-5-8-5-14 0-19Z" transform="rotate(315)"/></g><circle r="5.5" fill="url(#gemR)" stroke="#5a1a0a" stroke-width=".8"/><circle cx="-1.8" cy="-1.8" r="1.6" fill="#fff" opacity=".8"/><path d="M-31-12A33 33 0 0 1-12-31" fill="none" stroke="#fff" stroke-opacity=".75" stroke-width="3.5" stroke-linecap="round"/></g></defs><rect width="250" height="350" rx="14" fill="url(#paper)"/><rect x=".75" y=".75" width="248.5" height="348.5" rx="13.3" fill="none" stroke="#2b1d14" stroke-opacity=".35" stroke-width="1.5"/><path d="M18 9H232A9 9 0 0 1 241 18V332A9 9 0 0 1 232 341H18A9 9 0 0 1 9 332V18A9 9 0 0 1 18 9Z" fill="none" stroke="#c48a12" stroke-width="2.2" stroke-linecap="round"/><use href="#em-o" transform="translate(88 66) rotate(0) scale(.56)"/><use href="#em-o" transform="translate(162 66) rotate(0) scale(.56)"/><use href="#em-o" transform="translate(125 121) rotate(0) scale(.56)"/><use href="#em-o" transform="translate(88 176) rotate(0) scale(.56)"/><use href="#em-o" transform="translate(162 176) rotate(0) scale(.56)"/><use href="#em-o" transform="translate(88 282) rotate(0) scale(.56)"/><use href="#em-o" transform="translate(162 282) rotate(0) scale(.56)"/><g><g fill="none" stroke="#8a4f00" stroke-width="14" stroke-linecap="round" stroke-linejoin="round"><path d="M6 5H44C32 24 24 48 21 75" transform="translate(17.38 16) scale(.62)"/></g><g transform="translate(33 90) scale(.26)"><circle r="40" fill="#f0b52a" stroke="#2b1d14" stroke-width="7"/><circle r="19" fill="none" stroke="#9a5f00" stroke-width="7"/></g></g><g transform="rotate(180 125 175)"><g fill="none" stroke="#8a4f00" stroke-width="14" stroke-linecap="round" stroke-linejoin="round"><path d="M6 5H44C32 24 24 48 21 75" transform="translate(17.38 16) scale(.62)"/></g><g transform="translate(33 90) scale(.26)"><circle r="40" fill="#f0b52a" stroke="#2b1d14" stroke-width="7"/><circle r="19" fill="none" stroke="#9a5f00" stroke-width="7"/></g></g></svg>
