<svg xmlns="http://www.w3.org/2000/svg" viewBox="0 0 240 40" width="240" height="40"><path d="M6 21C60 15 140 15 234 19" fill="none" stroke="#f4efe3" stroke-width="4" stroke-linecap="round"/><svg x="16" y="1" width="36" height="36" viewBox="0 0 100 100"><path d="M50 3a43 43 0 1 1-0.01 0Z" fill="#000" transform="translate(0 8)" opacity=".3"/><path d="M50 3a43 43 0 1 1-0.01 0Z" fill="#735141" transform="translate(0 5)"/><path d="M50 3a43 43 0 1 1-0.01 0Z" fill="#ff9478"/><path d="M50 3a43 43 0 1 1-0.01 0Z" fill="none" stroke="#fff" stroke-opacity=".42" stroke-width="2.2" stroke-linejoin="round" transform="translate(50 47) scale(0.86) translate(-50 -47)"/><path d="M20 30A36 36 0 0 1 40 12" fill="none" stroke="#fff" stroke-opacity=".6" stroke-width="4" stroke-linecap="round"/></svg><svg x="74" y="1" width="36" height="36" viewBox="0 0 100 100"><path d="M27 8h46a19 19 0 0 1 19 19v42a19 19 0 0 1-19 19h-46a19 19 0 0 1-19-19v-42a19 19 0 0 1 19-19Z" fill="#000" transform="translate(0 8)" opacity=".3"/><path d="M27 8h46a19 19 0 0 1 19 19v42a19 19 0 0 1-19 19h-46a19 19 0 0 1-19-19v-42a19 19 0 0 1 19-19Z" fill="#3d6a7a" transform="translate(0 5)"/><path d="M27 8h46a19 19 0 0 1 19 19v42a19 19 0 0 1-19 19h-46a19 19 0 0 1-19-19v-42a19 19 0 0 1 19-19Z" fill="#7fd0ff"/><path d="M27 8h46a19 19 0 0 1 19 19v42a19 19 0 0 1-19 19h-46a19 19 0 0 1-19-19v-42a19 19 0 0 1 19-19Z" fill="none" stroke="#fff" stroke-opacity=".42" stroke-width="2.2" stroke-linejoin="round" transform="translate(50 47) scale(0.86) translate(-50 -47)"/><path d="M17 32V27a10 10 0 0 1 10-10h12" fill="none" stroke="#fff" stroke-opacity=".6" stroke-width="4" stroke-linecap="round"/></svg><svg x="132" y="1" width="36" height="36" viewBox="0 0 100 100"><path d="M50 12L89 82H11Z" fill="#000" stroke="#000" stroke-width="13" stroke-linejoin="round" transform="translate(0 8)" opacity=".3"/><path d="M50 12L89 82H11Z" fill="#447035" stroke="#447035" stroke-width="13" stroke-linejoin="round" transform="translate(0 5)"/><path d="M50 12L89 82H11Z" fill="#8fdc5c" stroke="#8fdc5c" stroke-width="13" stroke-linejoin="round"/><path d="M50 12L89 82H11Z" fill="none" stroke="#fff" stroke-opacity=".42" stroke-width="2.2" stroke-linejoin="round" transform="translate(50 58.7) scale(0.97) translate(-50 -58.7)"/><path d="M37 36L45 22" fill="none" stroke="#fff" stroke-opacity=".6" stroke-width="4" stroke-linecap="round"/></svg><svg x="190" y="1" width="36" height="36" viewBox="0 0 100 100"><path d="M50 9L89 47L50 85L11 47Z" fill="#000" stroke="#000" stroke-width="12" stroke-linejoin="round" transform="translate(0 8)" opacity=".3"/><path d="M50 9L89 47L50 85L11 47Z" fill="#554e75" stroke="#554e75" stroke-width="12" stroke-linejoin="round" transform="translate(0 5)"/><path d="M50 9L89 47L50 85L11 47Z" fill="#b98cf5" stroke="#b98cf5" stroke-width="12" stroke-linejoin="round"/><path d="M50 9L89 47L50 85L11 47Z" fill="none" stroke="#fff" stroke-opacity=".42" stroke-width="2.2" stroke-linejoin="round" transform="translate(50 47) scale(0.86) translate(-50 -47)"/><path d="M22 41L36 27" fill="none" stroke="#fff" stroke-opacity=".6" stroke-width="4" stroke-linecap="round"/></svg></svg>
