<svg xmlns="http://www.w3.org/2000/svg" viewBox="0 0 250 350" width="250" height="350"><defs><radialGradient id="bk" cx=".5" cy=".5" r=".7"><stop offset="0" stop-color="#8e1c2e"/><stop offset="1" stop-color="#3e0812"/></radialGradient><pattern id="lat" x="4" y="10" width="22" height="22" patternUnits="userSpaceOnUse"><path d="M11 0 22 11 11 22 0 11Z" fill="none" stroke="#f0c050" stroke-opacity=".38" stroke-width=".8"/><circle cx="0" cy="0" r="1.6" fill="#f0c050" opacity=".55"/><circle cx="22" cy="0" r="1.6" fill="#f0c050" opacity=".55"/><circle cx="0" cy="22" r="1.6" fill="#f0c050" opacity=".55"/><circle cx="22" cy="22" r="1.6" fill="#f0c050" opacity=".55"/><path d="M11 6.5C13 9 13 9 15.5 11 13 13 13 13 11 15.5 9 13 9 13 6.5 11 9 9 9 9 11 6.5Z" fill="#f0c050" opacity=".75"/><circle cx="11" cy="11" r="1.3" fill="#3e0812"/></pattern><radialGradient id="med" cx=".5" cy=".5" r=".6"><stop offset="0" stop-color="#8e1c2e"/><stop offset="1" stop-color="#3e0812"/></radialGradient><linearGradient id="gGv" x1="0" y1="0" x2="0" y2="1"><stop offset="0" stop-color="#fff3b0"/><stop offset=".45" stop-color="#e9b632"/><stop offset="1" stop-color="#9a6508"/></linearGradient></defs><rect width="250" height="350" rx="14" fill="url(#bk)"/><rect x="1" y="1" width="248" height="348" rx="13" fill="none" stroke="#000" stroke-opacity=".35" stroke-width="2"/><rect x="9" y="9" width="232" height="332" rx="9" fill="none" stroke="#f0c050" stroke-width="2.2"/><rect x="15" y="15" width="220" height="320" rx="6" fill="url(#lat)" stroke="#f0c050" stroke-width=".9"/><g transform="translate(15 15) rotate(0)"><path d="M0 0H34A34 34 0 0 1 0 34Z" fill="#f0c050" opacity=".9"/><path d="M0 0H26A26 26 0 0 1 0 26Z" fill="#3e0812"/><path d="M0 0 22 8M0 0 15 15M0 0 8 22" stroke="#f0c050" stroke-width="1.2"/><circle cx="6" cy="6" r="2.6" fill="#f0c050"/></g><g transform="translate(235 15) rotate(90)"><path d="M0 0H34A34 34 0 0 1 0 34Z" fill="#f0c050" opacity=".9"/><path d="M0 0H26A26 26 0 0 1 0 26Z" fill="#3e0812"/><path d="M0 0 22 8M0 0 15 15M0 0 8 22" stroke="#f0c050" stroke-width="1.2"/><circle cx="6" cy="6" r="2.6" fill="#f0c050"/></g><g transform="translate(235 335) rotate(180)"><path d="M0 0H34A34 34 0 0 1 0 34Z" fill="#f0c050" opacity=".9"/><path d="M0 0H26A26 26 0 0 1 0 26Z" fill="#3e0812"/><path d="M0 0 22 8M0 0 15 15M0 0 8 22" stroke="#f0c050" stroke-width="1.2"/><circle cx="6" cy="6" r="2.6" fill="#f0c050"/></g><g transform="translate(15 335) rotate(270)"><path d="M0 0H34A34 34 0 0 1 0 34Z" fill="#f0c050" opacity=".9"/><path d="M0 0H26A26 26 0 0 1 0 26Z" fill="#3e0812"/><path d="M0 0 22 8M0 0 15 15M0 0 8 22" stroke="#f0c050" stroke-width="1.2"/><circle cx="6" cy="6" r="2.6" fill="#f0c050"/></g><g transform="translate(125 175)"><path d="M0-74 12-58 0-50-12-58ZM0 74 12 58 0 50-12 58Z" fill="#f0c050"/><path d="M0-62C10-54 10-48 0-44-10-48-10-54 0-62Z" transform="rotate(0)" fill="#f0c050" opacity=".9"/><path d="M0-62C10-54 10-48 0-44-10-48-10-54 0-62Z" transform="rotate(30)" fill="#f0c050" opacity=".9"/><path d="M0-62C10-54 10-48 0-44-10-48-10-54 0-62Z" transform="rotate(60)" fill="#f0c050" opacity=".9"/><path d="M0-62C10-54 10-48 0-44-10-48-10-54 0-62Z" transform="rotate(90)" fill="#f0c050" opacity=".9"/><path d="M0-62C10-54 10-48 0-44-10-48-10-54 0-62Z" transform="rotate(120)" fill="#f0c050" opacity=".9"/><path d="M0-62C10-54 10-48 0-44-10-48-10-54 0-62Z" transform="rotate(150)" fill="#f0c050" opacity=".9"/><path d="M0-62C10-54 10-48 0-44-10-48-10-54 0-62Z" transform="rotate(180)" fill="#f0c050" opacity=".9"/><path d="M0-62C10-54 10-48 0-44-10-48-10-54 0-62Z" transform="rotate(210)" fill="#f0c050" opacity=".9"/><path d="M0-62C10-54 10-48 0-44-10-48-10-54 0-62Z" transform="rotate(240)" fill="#f0c050" opacity=".9"/><path d="M0-62C10-54 10-48 0-44-10-48-10-54 0-62Z" transform="rotate(270)" fill="#f0c050" opacity=".9"/><path d="M0-62C10-54 10-48 0-44-10-48-10-54 0-62Z" transform="rotate(300)" fill="#f0c050" opacity=".9"/><path d="M0-62C10-54 10-48 0-44-10-48-10-54 0-62Z" transform="rotate(330)" fill="#f0c050" opacity=".9"/><circle r="48" fill="url(#med)" stroke="#f0c050" stroke-width="3"/><circle r="42" fill="none" stroke="#f0c050" stroke-width=".9" stroke-dasharray="2 2.6"/><g transform="translate(23.33 23.33) scale(.15)"><circle r="40" fill="#f0b52a" stroke="#2b1d14" stroke-width="7"/><circle r="19" fill="none" stroke="#9a5f00" stroke-width="7"/></g><g transform="translate(-23.33 23.33) scale(.15)"><path d="M-40-42H40C40-6 20 8 7 10V24C19 28 28 34 30 46H-30C-28 34-19 28-7 24V10C-20 8-40-6-40-42Z" fill="#d42d36" stroke="#2b1d14" stroke-width="6.5" stroke-linejoin="round"/></g><g transform="translate(-23.33 -23.33) scale(.15)"><path d="M0-52 11-36V14H28V26H8V36L12 48H-12L-8 36V26H-28V14H-11V-36Z" fill="#2f66c8" stroke="#2b1d14" stroke-width="6.5" stroke-linejoin="round"/></g><g transform="translate(23.33 -23.33) scale(.15)"><path d="M-8 48-16-28C-19-50 19-50 16-28L8 48Z" fill="#3f9a3c" stroke="#2b1d14" stroke-width="6.5" stroke-linejoin="round"/><circle cx="-15" cy="-6" r="0" /></g><path d="M12-12A17 17 0 1 0 12 12" fill="none" stroke="#f0c050" stroke-width="6" stroke-linecap="round"/><path d="M12-12A17 17 0 1 0 12 12" fill="none" stroke="#fff" stroke-opacity=".35" stroke-width="1.4" stroke-linecap="round" transform="translate(-1.5 -1.5)"/><circle cx="0" cy="0" r="2.6" fill="#f0c050"/></g></svg>
