<svg xmlns="http://www.w3.org/2000/svg" viewBox="0 0 250 350" width="250" height="350"><defs><radialGradient id="bk" cx=".5" cy=".5" r=".7"><stop offset="0" stop-color="#9a2560"/><stop offset="1" stop-color="#4a0c2a"/></radialGradient><pattern id="lat" x="4" y="10" width="22" height="22" patternUnits="userSpaceOnUse"><path d="M11 0 22 11 11 22 0 11Z" fill="none" stroke="#f2c45a" stroke-opacity=".38" stroke-width=".8"/><circle cx="0" cy="0" r="1.6" fill="#f2c45a" opacity=".55"/><circle cx="22" cy="0" r="1.6" fill="#f2c45a" opacity=".55"/><circle cx="0" cy="22" r="1.6" fill="#f2c45a" opacity=".55"/><circle cx="22" cy="22" r="1.6" fill="#f2c45a" opacity=".55"/><circle cx="11" cy="11" r="3.4" fill="#e2365e" stroke="#f2c45a" stroke-width=".6"/><path d="M9.4 11a1.6 1.6 0 1 1 1.6 1.6" fill="none" stroke="#7a0f2a" stroke-width=".7"/></pattern><radialGradient id="med" cx=".5" cy=".5" r=".6"><stop offset="0" stop-color="#9a2560"/><stop offset="1" stop-color="#4a0c2a"/></radialGradient><linearGradient id="gGv" x1="0" y1="0" x2="0" y2="1"><stop offset="0" stop-color="#fff3b0"/><stop offset=".45" stop-color="#e9b632"/><stop offset="1" stop-color="#9a6508"/></linearGradient><radialGradient id="rose" cx=".4" cy=".35" r=".75"><stop offset="0" stop-color="#ff9fb4"/><stop offset=".55" stop-color="#e2365e"/><stop offset="1" stop-color="#8c0f33"/></radialGradient><linearGradient id="bLeaf" x1="0" y1="0" x2="1" y2="1"><stop offset="0" stop-color="#c4ef8a"/><stop offset=".5" stop-color="#58ad3e"/><stop offset="1" stop-color="#22662a"/></linearGradient></defs><rect width="250" height="350" rx="14" fill="url(#bk)"/><rect x="1" y="1" width="248" height="348" rx="13" fill="none" stroke="#000" stroke-opacity=".35" stroke-width="2"/><rect x="9" y="9" width="232" height="332" rx="9" fill="none" stroke="#f2c45a" stroke-width="2.2"/><rect x="15" y="15" width="220" height="320" rx="6" fill="url(#lat)" stroke="#f2c45a" stroke-width=".9"/><g transform="translate(15 15) rotate(0)"><path d="M0 0H34A34 34 0 0 1 0 34Z" fill="#f2c45a" opacity=".9"/><path d="M0 0H26A26 26 0 0 1 0 26Z" fill="#4a0c2a"/><path d="M0 0 22 8M0 0 15 15M0 0 8 22" stroke="#f2c45a" stroke-width="1.2"/><circle cx="6" cy="6" r="2.6" fill="#f2c45a"/></g><g transform="translate(235 15) rotate(90)"><path d="M0 0H34A34 34 0 0 1 0 34Z" fill="#f2c45a" opacity=".9"/><path d="M0 0H26A26 26 0 0 1 0 26Z" fill="#4a0c2a"/><path d="M0 0 22 8M0 0 15 15M0 0 8 22" stroke="#f2c45a" stroke-width="1.2"/><circle cx="6" cy="6" r="2.6" fill="#f2c45a"/></g><g transform="translate(235 335) rotate(180)"><path d="M0 0H34A34 34 0 0 1 0 34Z" fill="#f2c45a" opacity=".9"/><path d="M0 0H26A26 26 0 0 1 0 26Z" fill="#4a0c2a"/><path d="M0 0 22 8M0 0 15 15M0 0 8 22" stroke="#f2c45a" stroke-width="1.2"/><circle cx="6" cy="6" r="2.6" fill="#f2c45a"/></g><g transform="translate(15 335) rotate(270)"><path d="M0 0H34A34 34 0 0 1 0 34Z" fill="#f2c45a" opacity=".9"/><path d="M0 0H26A26 26 0 0 1 0 26Z" fill="#4a0c2a"/><path d="M0 0 22 8M0 0 15 15M0 0 8 22" stroke="#f2c45a" stroke-width="1.2"/><circle cx="6" cy="6" r="2.6" fill="#f2c45a"/></g><g transform="translate(125 175)"><path d="M0-74 12-58 0-50-12-58ZM0 74 12 58 0 50-12 58Z" fill="#f2c45a"/><path d="M0-62C10-54 10-48 0-44-10-48-10-54 0-62Z" transform="rotate(0)" fill="#f2c45a" opacity=".9"/><path d="M0-62C10-54 10-48 0-44-10-48-10-54 0-62Z" transform="rotate(30)" fill="#f2c45a" opacity=".9"/><path d="M0-62C10-54 10-48 0-44-10-48-10-54 0-62Z" transform="rotate(60)" fill="#f2c45a" opacity=".9"/><path d="M0-62C10-54 10-48 0-44-10-48-10-54 0-62Z" transform="rotate(90)" fill="#f2c45a" opacity=".9"/><path d="M0-62C10-54 10-48 0-44-10-48-10-54 0-62Z" transform="rotate(120)" fill="#f2c45a" opacity=".9"/><path d="M0-62C10-54 10-48 0-44-10-48-10-54 0-62Z" transform="rotate(150)" fill="#f2c45a" opacity=".9"/><path d="M0-62C10-54 10-48 0-44-10-48-10-54 0-62Z" transform="rotate(180)" fill="#f2c45a" opacity=".9"/><path d="M0-62C10-54 10-48 0-44-10-48-10-54 0-62Z" transform="rotate(210)" fill="#f2c45a" opacity=".9"/><path d="M0-62C10-54 10-48 0-44-10-48-10-54 0-62Z" transform="rotate(240)" fill="#f2c45a" opacity=".9"/><path d="M0-62C10-54 10-48 0-44-10-48-10-54 0-62Z" transform="rotate(270)" fill="#f2c45a" opacity=".9"/><path d="M0-62C10-54 10-48 0-44-10-48-10-54 0-62Z" transform="rotate(300)" fill="#f2c45a" opacity=".9"/><path d="M0-62C10-54 10-48 0-44-10-48-10-54 0-62Z" transform="rotate(330)" fill="#f2c45a" opacity=".9"/><circle r="48" fill="url(#med)" stroke="#f2c45a" stroke-width="3"/><circle r="42" fill="none" stroke="#f2c45a" stroke-width=".9" stroke-dasharray="2 2.6"/><g transform="translate(0 -8) scale(1.15)"><path d="M-17-11-19-30-10-21-5-34 0-23 5-34 10-21 19-30 17-11Z" fill="url(#gGv)" stroke="#2b1d14" stroke-width="1.2" stroke-linejoin="round"/><path d="M-17.5-14H17.5L17-9H-17Z" fill="url(#gGv)" stroke="#2b1d14" stroke-width="1"/></g><g transform="translate(0 14) scale(1.35)"><g transform="translate(2 10) rotate(20) scale(.9)"><path d="M0 0C4-7 12-9 20-6 15 1 7 4 0 0Z" fill="url(#bLeaf)" stroke="#2b1d14" stroke-width="1"/><path d="M1-.5C7-3 12-4 17-5.5" fill="none" stroke="#1d5222" stroke-width=".7" stroke-opacity=".7"/></g><g transform="translate(-2 12) rotate(150) scale(.8)"><path d="M0 0C4-7 12-9 20-6 15 1 7 4 0 0Z" fill="url(#bLeaf)" stroke="#2b1d14" stroke-width="1"/><path d="M1-.5C7-3 12-4 17-5.5" fill="none" stroke="#1d5222" stroke-width=".7" stroke-opacity=".7"/></g><path d="M-12 1C-14-9-6-14 0-12 6-14 14-9 12 1 10 11-10 11-12 1Z" fill="url(#rose)" stroke="#2b1d14" stroke-width="1.3"/><path d="M-11 2C-6 8 6 8 11 2M-8-6C-4-1 4-1 8-6" fill="none" stroke="#7a0f2a" stroke-width="1" stroke-opacity=".7"/><path d="M-5-3C-5-8 5-8 5-3 5 2-3 2-3-2-3-5 2-5 2-2" fill="none" stroke="#7a0f2a" stroke-width="1.3" stroke-linecap="round"/><path d="M-8-4C-8-8-5-10-2-10" fill="none" stroke="#fff" stroke-opacity=".6" stroke-width="1.4" stroke-linecap="round"/></g></g></svg>
